<mxfile host="app.diagrams.net" modified="2023-11-08T17:08:34.350Z" agent="Mozilla/5.0 (Macintosh; Intel Mac OS X 10_15_7) AppleWebKit/537.36 (KHTML, like Gecko) Chrome/117.0.0.0 Safari/537.36" etag="mhgdzZqCKmohR1koYsms" version="22.0.8" type="google">
  <diagram name="Page-1" id="KujZbz5WHP47lfC5e_Mp">
    <mxGraphModel grid="1" page="1" gridSize="10" guides="1" tooltips="1" connect="1" arrows="1" fold="1" pageScale="1" pageWidth="827" pageHeight="1169" math="0" shadow="0">
      <root>
        <mxCell id="0" />
        <mxCell id="1" parent="0" />
        <mxCell id="NN4GVcqzYjT9skBlVFuu-5" value="" style="rounded=0;whiteSpace=wrap;html=1;dashed=1;dashPattern=8 8;" vertex="1" parent="1">
          <mxGeometry x="110" y="420" width="310" height="550" as="geometry" />
        </mxCell>
        <mxCell id="NN4GVcqzYjT9skBlVFuu-8" value="" style="rounded=0;whiteSpace=wrap;html=1;dashed=1;dashPattern=8 8;" vertex="1" parent="1">
          <mxGeometry x="850" y="420" width="340" height="540" as="geometry" />
        </mxCell>
        <mxCell id="DO3vEx3iHMXvv0fm6TVs-14" value="" style="group" vertex="1" connectable="0" parent="1">
          <mxGeometry x="480" y="460" width="300" height="520" as="geometry" />
        </mxCell>
        <mxCell id="NN4GVcqzYjT9skBlVFuu-6" value="" style="rounded=0;whiteSpace=wrap;html=1;dashed=1;dashPattern=8 8;" vertex="1" parent="DO3vEx3iHMXvv0fm6TVs-14">
          <mxGeometry y="-40" width="310" height="540" as="geometry" />
        </mxCell>
        <mxCell id="DO3vEx3iHMXvv0fm6TVs-13" value="" style="rounded=0;whiteSpace=wrap;html=1;fillColor=#d5e8d4;strokeColor=#82b366;" vertex="1" parent="DO3vEx3iHMXvv0fm6TVs-14">
          <mxGeometry x="30" y="-5" width="250" height="470" as="geometry" />
        </mxCell>
        <mxCell id="DO3vEx3iHMXvv0fm6TVs-7" value="&lt;font style=&quot;font-size: 24px;&quot;&gt;Nginx&lt;/font&gt;" style="rounded=0;whiteSpace=wrap;html=1;" vertex="1" parent="DO3vEx3iHMXvv0fm6TVs-14">
          <mxGeometry x="104.07407407407408" y="274.0625" width="111.1111111111111" height="88.125" as="geometry" />
        </mxCell>
        <mxCell id="DO3vEx3iHMXvv0fm6TVs-8" value="&lt;font style=&quot;font-size: 24px;&quot;&gt;Express API&lt;/font&gt;" style="whiteSpace=wrap;html=1;rounded=0;" vertex="1" parent="DO3vEx3iHMXvv0fm6TVs-14">
          <mxGeometry x="104.07407407407408" y="46.40625" width="111.1111111111111" height="88.125" as="geometry" />
        </mxCell>
        <mxCell id="DO3vEx3iHMXvv0fm6TVs-9" value="" style="edgeStyle=orthogonalEdgeStyle;rounded=0;orthogonalLoop=1;jettySize=auto;html=1;" edge="1" parent="DO3vEx3iHMXvv0fm6TVs-14" source="DO3vEx3iHMXvv0fm6TVs-7" target="DO3vEx3iHMXvv0fm6TVs-8">
          <mxGeometry relative="1" as="geometry" />
        </mxCell>
        <mxCell id="DO3vEx3iHMXvv0fm6TVs-12" style="edgeStyle=orthogonalEdgeStyle;rounded=0;orthogonalLoop=1;jettySize=auto;html=1;entryX=0.5;entryY=1;entryDx=0;entryDy=0;" edge="1" parent="1" source="DO3vEx3iHMXvv0fm6TVs-11" target="DO3vEx3iHMXvv0fm6TVs-7">
          <mxGeometry relative="1" as="geometry" />
        </mxCell>
        <mxCell id="DO3vEx3iHMXvv0fm6TVs-15" value="" style="rounded=0;whiteSpace=wrap;html=1;fillColor=#e1d5e7;strokeColor=#9673a6;" vertex="1" parent="1">
          <mxGeometry x="880" y="460" width="280" height="340" as="geometry" />
        </mxCell>
        <mxCell id="DO3vEx3iHMXvv0fm6TVs-2" value="&lt;font style=&quot;font-size: 24px;&quot;&gt;DB 2 (Secondary)&lt;/font&gt;" style="shape=cylinder3;whiteSpace=wrap;html=1;boundedLbl=1;backgroundOutline=1;size=15;fillColor=#ffe6cc;strokeColor=#d79b00;" vertex="1" parent="1">
          <mxGeometry x="945" y="500" width="150" height="90" as="geometry" />
        </mxCell>
        <mxCell id="DO3vEx3iHMXvv0fm6TVs-3" value="&lt;font style=&quot;font-size: 24px;&quot;&gt;DB 1 &lt;br&gt;(Primary)&lt;/font&gt;" style="shape=cylinder3;whiteSpace=wrap;html=1;boundedLbl=1;backgroundOutline=1;size=15;fillColor=#ffe6cc;strokeColor=#d79b00;" vertex="1" parent="1">
          <mxGeometry x="939.29" y="680" width="161.43" height="90" as="geometry" />
        </mxCell>
        <mxCell id="DO3vEx3iHMXvv0fm6TVs-4" value="" style="edgeStyle=orthogonalEdgeStyle;rounded=0;orthogonalLoop=1;jettySize=auto;html=1;" edge="1" parent="1" source="DO3vEx3iHMXvv0fm6TVs-2" target="DO3vEx3iHMXvv0fm6TVs-3">
          <mxGeometry relative="1" as="geometry" />
        </mxCell>
        <mxCell id="DO3vEx3iHMXvv0fm6TVs-5" value="" style="edgeStyle=orthogonalEdgeStyle;rounded=0;orthogonalLoop=1;jettySize=auto;html=1;" edge="1" parent="1" source="DO3vEx3iHMXvv0fm6TVs-3" target="DO3vEx3iHMXvv0fm6TVs-2">
          <mxGeometry relative="1" as="geometry" />
        </mxCell>
        <mxCell id="NN4GVcqzYjT9skBlVFuu-3" value="" style="group" connectable="0" vertex="1" parent="1">
          <mxGeometry x="145" y="620" width="240" height="120" as="geometry" />
        </mxCell>
        <mxCell id="NN4GVcqzYjT9skBlVFuu-25" value="" style="group" connectable="0" vertex="1" parent="NN4GVcqzYjT9skBlVFuu-3">
          <mxGeometry width="240" height="120" as="geometry" />
        </mxCell>
        <mxCell id="NN4GVcqzYjT9skBlVFuu-26" value="" style="group" connectable="0" vertex="1" parent="NN4GVcqzYjT9skBlVFuu-25">
          <mxGeometry width="240" height="120" as="geometry" />
        </mxCell>
        <mxCell id="DO3vEx3iHMXvv0fm6TVs-16" value="" style="rounded=0;whiteSpace=wrap;html=1;fillColor=#f5f5f5;fontColor=#333333;strokeColor=#666666;" vertex="1" parent="NN4GVcqzYjT9skBlVFuu-26">
          <mxGeometry width="240" height="120" as="geometry" />
        </mxCell>
        <mxCell id="DO3vEx3iHMXvv0fm6TVs-11" value="&lt;font style=&quot;font-size: 24px;&quot;&gt;UI &lt;br&gt;(React App)&lt;/font&gt;" style="rounded=0;whiteSpace=wrap;html=1;" vertex="1" parent="NN4GVcqzYjT9skBlVFuu-26">
          <mxGeometry x="27.35294117647058" y="30" width="185.2941176470588" height="60" as="geometry" />
        </mxCell>
        <mxCell id="NN4GVcqzYjT9skBlVFuu-10" style="edgeStyle=orthogonalEdgeStyle;rounded=0;orthogonalLoop=1;jettySize=auto;html=1;entryX=0.5;entryY=1;entryDx=0;entryDy=0;entryPerimeter=0;" edge="1" parent="1" source="DO3vEx3iHMXvv0fm6TVs-8" target="DO3vEx3iHMXvv0fm6TVs-3">
          <mxGeometry relative="1" as="geometry" />
        </mxCell>
        <mxCell id="NN4GVcqzYjT9skBlVFuu-12" value="&lt;span style=&quot;font-size: 24px;&quot;&gt;Server 1&lt;br&gt;AWS Amplify&lt;br&gt;(Deployable option at third party server)&lt;br&gt;&lt;/span&gt;" style="text;html=1;strokeColor=none;fillColor=none;align=center;verticalAlign=middle;whiteSpace=wrap;rounded=0;" vertex="1" parent="1">
          <mxGeometry x="140" y="1010" width="250" height="140" as="geometry" />
        </mxCell>
        <mxCell id="NN4GVcqzYjT9skBlVFuu-13" value="&lt;span style=&quot;font-size: 24px;&quot;&gt;Server 2&lt;br&gt;AWS EC2&lt;br&gt;&lt;/span&gt;" style="text;html=1;strokeColor=none;fillColor=none;align=center;verticalAlign=middle;whiteSpace=wrap;rounded=0;" vertex="1" parent="1">
          <mxGeometry x="512.5" y="1015" width="235" height="70" as="geometry" />
        </mxCell>
        <mxCell id="NN4GVcqzYjT9skBlVFuu-16" value="&lt;span style=&quot;font-size: 24px;&quot;&gt;Server 3&lt;br&gt;AWS EC2&lt;br&gt;&lt;/span&gt;" style="text;html=1;strokeColor=none;fillColor=none;align=center;verticalAlign=middle;whiteSpace=wrap;rounded=0;" vertex="1" parent="1">
          <mxGeometry x="902.5" y="1015" width="235" height="70" as="geometry" />
        </mxCell>
      </root>
    </mxGraphModel>
  </diagram>
</mxfile>
